<?xml version="1.0" encoding="UTF-8"?> <svg xmlns="http://www.w3.org/2000/svg" id="Capa_1" version="1.1" viewBox="0 0 240.78 153.9"><defs><style> .st0 { stroke: #183f73; } .st0, .st1, .st2 { fill: none; stroke-miterlimit: 10; } .st0, .st2 { stroke-width: 3.01px; } .st3 { fill: #183f73; } .st1 { stroke-linecap: round; stroke-width: 2.25px; } .st1, .st2 { stroke: #009dce; } .st4 { fill: #de1f27; } .st5 { fill: #009dce; } .st6 { fill: #009059; } </style></defs><polygon class="st6" points="66.03 139.57 0 0 66.03 85.15 132.06 0 66.03 139.57"></polygon><rect class="st3" x="95.58" y="90.66" width="8.1" height="33.06"></rect><rect class="st3" x="153.26" y="90.66" width="7.85" height="33.06"></rect><polygon class="st3" points="137.16 90.66 137.16 112.03 120.16 90.66 112.17 90.66 112.17 123.71 120.16 123.71 120.16 102.89 137.16 123.71 145.15 123.71 145.15 90.66 137.16 90.66"></polygon><polygon class="st5" points="217.25 109 238.45 109 238.45 103.62 217.25 103.62 217.25 96.04 239.89 96.04 239.89 90.66 217.25 90.66 209.28 90.66 209.28 123.71 217.25 123.71 240.3 123.71 240.3 118.33 217.25 118.33 217.25 109"></polygon><path class="st5" d="M192.25,100.26h8.47s-.08-9.82-15.61-9.82c-15.53,0-15.53,7.24-15.53,9.82s3.1,6.58,8.26,7.74c5.17,1.16,15.65,1.17,16.18,5.67.48,4.04-3.47,5.07-8.23,5.04-4.76-.03-9.55-.22-9.7-5.76h-7.68s-.71,11.11,17.32,11.11,16.18-11.11,16.18-11.11c0,0,1.11-6.82-13.58-9.35-1.39-.24-2.79-.39-4.19-.51-2.62-.23-9.13-1.24-6.53-5.51.85-1.39,3.66-1.85,5.28-1.92,3.24-.13,9.23.21,9.34,4.6Z"></path><path class="st3" d="M239.3,42.71l-43.45-29.8c-.5-.34-1.16-.35-1.67-.02l-15.21,9.78v-5.01c0-.83-.67-1.5-1.5-1.5h-9.06c-.83,0-1.5.68-1.5,1.5v12.04l-16.9,13.07c-.51.39-.71,1.07-.5,1.68.2.61.77,1.01,1.42,1.01h8.39v25.66l-2.28,2.52h-15.15l-1.82-.35c-1.78-.34-3.43-1.17-4.78-2.39-.91-.83-1.93-1.76-2.64-2.41-.57-.52-1.3-.8-2.07-.8-2.53,0-8.22,0-8.14,0-1.17-.72-3.2-.94-4.67-.91-.39,0-.69.33-.69.72v2.4h-8.7v2.07h8.7v6.45h-8.7v2.07h8.7v2.34c0,.39.3.71.69.72,1.5.03,3.57-.23,4.67-.92,0,0,5.62,0,8.14,0,.77,0,1.51-.29,2.07-.8l2.64-2.4c1.34-1.22,2.99-2.05,4.77-2.39l1.82-.35v-.03h15.82c.42,0,.83-.18,1.11-.5l3.11-3.44c.25-.28.39-.64.39-1.01v-27.74c0-.83-.68-1.5-1.5-1.5h-5.5l14.01-10.83c.37-.29.58-.72.58-1.19v-11.27h6.06v6.26c0,.55.3,1.06.79,1.32.48.26,1.07.24,1.53-.05l16.69-10.74,38.63,26.5h-6.06c-.83,0-1.5.68-1.5,1.5v33.43h-29.42l-.06-8.59-.02-2.27-3.01-1.53v1.27s.09,12.64.09,12.64c0,.83.68,1.5,1.5,1.5h32.42c.83,0,1.5-.68,1.5-1.5v-33.43h9.41c.66,0,1.24-.43,1.43-1.06.2-.63-.05-1.31-.59-1.68Z"></path><path class="st0" d="M240.4,38.72"></path><path class="st0" d="M235.69,41.66"></path><path class="st2" d="M195.26,33.12"></path><g><path class="st5" d="M194.81,60.73c-5.4,0-9.8-4.4-9.8-9.8s4.4-9.8,9.8-9.8,9.8,4.4,9.8,9.8-4.4,9.8-9.8,9.8ZM194.81,43.63c-4.03,0-7.3,3.27-7.3,7.3s3.27,7.3,7.3,7.3,7.3-3.27,7.3-7.3-3.27-7.3-7.3-7.3Z"></path><rect class="st5" x="193.78" y="32.31" width="2.74" height="7.01" rx="1.2" ry="1.2"></rect><path class="st3" d="M195.21,70.11h-.34c-.74,0-1.32-.6-1.32-1.34l-.02-4.33c0-.74.6-1.34,1.34-1.34h.34c.74,0,1.34.6,1.34,1.34v4.34c0,.74-.6,1.34-1.34,1.34Z"></path><rect class="st5" x="178.53" y="47.43" width="2.74" height="7.01" rx="1.2" ry="1.2" transform="translate(128.97 230.83) rotate(-90)"></rect><rect class="st5" x="209.24" y="47.43" width="2.74" height="7.01" rx="1.2" ry="1.2" transform="translate(159.68 261.54) rotate(-90)"></rect><rect class="st5" x="183.4" y="37.61" width="2.74" height="6.09" rx="1.2" ry="1.2" transform="translate(25.37 142.56) rotate(-45)"></rect><rect class="st5" x="204.57" y="58.54" width="2.74" height="6.09" rx="1.2" ry="1.2" transform="translate(10.41 150.88) rotate(-41.19)"></rect><rect class="st5" x="204.17" y="37.61" width="2.74" height="6.09" rx="1.2" ry="1.2" transform="translate(322.14 214.75) rotate(-135)"></rect><rect class="st5" x="183.24" y="58.54" width="2.74" height="6.09" rx="1.2" ry="1.2" transform="translate(271.6 235.68) rotate(-135)"></rect></g><g><line class="st1" x1="197.22" y1="9.72" x2="208.4" y2="17.61"></line><line class="st1" x1="212.75" y1="20.49" x2="223.94" y2="28.38"></line><line class="st1" x1="228.46" y1="31.43" x2="239.65" y2="39.32"></line></g><g><path class="st4" d="M98.81,150.18h-2.41v-11.09h2.41v11.09Z"></path><path class="st4" d="M108.99,150.18h-2.36v-4.52c0-.65-.12-1.15-.35-1.47-.23-.33-.59-.49-1.06-.49s-.83.18-1.13.53c-.3.35-.45.8-.45,1.34v4.63h-2.37v-8.11h2.37v1.29h.03c.3-.5.67-.87,1.1-1.12.44-.25.94-.37,1.51-.37.9,0,1.57.28,2.02.84.45.56.68,1.39.68,2.5v4.97Z"></path><path class="st4" d="M118.97,149.21c0,1.36-.42,2.48-1.25,3.36-.83.88-2.04,1.33-3.63,1.33-.59,0-1.13-.06-1.64-.17s-1.01-.28-1.51-.51l.71-1.61c.41.19.81.32,1.19.41s.81.13,1.29.13c.79,0,1.4-.23,1.83-.7.42-.47.63-1.09.63-1.86v-.6h-.03c-.28.46-.64.81-1.07,1.04-.43.23-.92.35-1.48.35-1.04,0-1.86-.37-2.47-1.1-.61-.73-.91-1.71-.91-2.92,0-1.37.34-2.46,1.02-3.28s1.57-1.22,2.67-1.22c.5,0,.94.1,1.31.29s.69.49.93.88h.03v-.97h2.37v7.15ZM116.63,146.31v-.71c0-.53-.16-.98-.48-1.35-.32-.37-.73-.56-1.24-.56-.58,0-1.04.22-1.37.67-.33.45-.5,1.08-.5,1.9,0,.71.16,1.26.48,1.67s.75.61,1.3.61.99-.21,1.32-.62c.33-.41.5-.95.5-1.62Z"></path><path class="st4" d="M128.41,146.79h-5.34c.04.62.24,1.09.61,1.4.37.31.87.47,1.52.47.24,0,.56-.07.97-.2.41-.14.81-.35,1.2-.65l1.03,1.38c-.55.41-1.11.72-1.69.91-.57.19-1.2.29-1.9.29-1.29,0-2.3-.36-3.02-1.09s-1.07-1.74-1.07-3.05.38-2.35,1.14-3.16c.76-.81,1.72-1.21,2.88-1.21s2.02.34,2.68,1.02c.66.68.99,1.66.99,2.94v.96ZM126.22,145.3c0-.64-.13-1.1-.38-1.39-.25-.29-.62-.43-1.11-.43-.43,0-.8.16-1.1.49-.31.33-.49.77-.56,1.33h3.16Z"></path><path class="st4" d="M137.76,150.18h-2.36v-4.52c0-.65-.12-1.15-.35-1.47-.23-.33-.59-.49-1.06-.49s-.83.18-1.13.53c-.3.35-.45.8-.45,1.34v4.63h-2.37v-8.11h2.37v1.29h.03c.3-.5.67-.87,1.1-1.12.44-.25.94-.37,1.51-.37.9,0,1.57.28,2.02.84.45.56.68,1.39.68,2.5v4.97Z"></path><path class="st4" d="M141.09,140.98c-.41,0-.75-.12-1.01-.37s-.39-.56-.39-.93.13-.7.39-.94.6-.36,1.01-.36.75.12,1.01.36.39.56.39.94-.13.69-.39.94-.6.37-1.01.37ZM142.25,150.18h-2.36v-8.11h2.36v8.11Z"></path><path class="st4" d="M151.82,146.79h-5.34c.04.62.24,1.09.61,1.4.37.31.87.47,1.52.47.24,0,.56-.07.97-.2.41-.14.81-.35,1.2-.65l1.03,1.38c-.55.41-1.11.72-1.69.91-.57.19-1.2.29-1.9.29-1.29,0-2.3-.36-3.02-1.09s-1.07-1.74-1.07-3.05.38-2.35,1.14-3.16c.76-.81,1.72-1.21,2.88-1.21s2.02.34,2.68,1.02c.66.68.99,1.66.99,2.94v.96ZM149.62,145.3c0-.64-.13-1.1-.38-1.39-.25-.29-.62-.43-1.11-.43-.43,0-.8.16-1.1.49-.31.33-.49.77-.56,1.33h3.16Z"></path><path class="st4" d="M158.45,144.04c-.1-.03-.21-.05-.32-.06-.11-.01-.23-.02-.36-.02-.64,0-1.13.21-1.46.62-.33.41-.49.98-.49,1.71v3.9h-2.37v-8.11h2.37v1.52h.03c.19-.55.47-.97.83-1.24s.8-.41,1.32-.41c.12,0,.24,0,.36.02s.24.04.36.06l-.27,2.03Z"></path><path class="st4" d="M161.16,140.81h-1.72l2-2.51h2.11l-2.39,2.51ZM159.96,150.18v-8.11h2.37v8.11h-2.37Z"></path><path class="st4" d="M171.23,150.18h-2.25v-1.18h-.03c-.27.45-.61.8-1.01,1.03-.41.23-.87.35-1.38.35-.72,0-1.33-.22-1.83-.65-.49-.43-.74-1.03-.74-1.79s.25-1.37.74-1.84c.49-.47,1.26-.77,2.29-.91l1.99-.27v-.15c0-.42-.13-.73-.39-.94-.26-.21-.61-.32-1.07-.32-.34,0-.71.06-1.11.17s-.81.3-1.21.55l-.83-1.4c.53-.33,1.07-.57,1.61-.72.54-.16,1.13-.24,1.77-.24,1.18,0,2.05.28,2.61.85s.85,1.42.85,2.56v4.9ZM169,146.88v-.57l-1.54.2c-.43.06-.75.18-.97.37-.21.19-.32.45-.32.78,0,.3.1.54.31.74s.48.29.83.29c.5,0,.9-.17,1.21-.51.31-.34.47-.77.47-1.29Z"></path><path class="st4" d="M184.56,150.18h-6.6v-11.09h6.34v1.97h-3.93v2.55h3.66v1.97h-3.66v2.63h4.18v1.96Z"></path><path class="st4" d="M186.27,150.18v-11.72h2.37v11.72h-2.37Z"></path><path class="st4" d="M198.1,146.79h-5.34c.04.62.24,1.09.61,1.4.37.31.87.47,1.52.47.24,0,.56-.07.97-.2.41-.14.81-.35,1.2-.65l1.03,1.38c-.55.41-1.11.72-1.69.91-.57.19-1.2.29-1.9.29-1.29,0-2.3-.36-3.02-1.09s-1.07-1.74-1.07-3.05.38-2.35,1.14-3.16c.76-.81,1.72-1.21,2.88-1.21s2.02.34,2.68,1.02c.66.68.99,1.66.99,2.94v.96ZM194.41,140.81h-1.72l2-2.51h2.11l-2.39,2.51ZM195.9,145.3c0-.64-.13-1.1-.38-1.39-.25-.29-.62-.43-1.11-.43-.43,0-.8.16-1.1.49-.31.33-.49.77-.56,1.33h3.16Z"></path><path class="st4" d="M206.2,149.65c-.41.25-.83.44-1.26.56-.43.12-.89.18-1.38.18-1.35,0-2.4-.38-3.16-1.13-.76-.76-1.14-1.73-1.14-2.93,0-1.38.4-2.46,1.21-3.26.81-.8,1.88-1.19,3.22-1.19.5,0,.93.05,1.31.15.38.1.76.25,1.13.46l-.89,1.6c-.24-.14-.47-.24-.71-.3-.23-.06-.49-.09-.75-.09-.67,0-1.19.21-1.56.65-.38.43-.56,1.04-.56,1.82s.2,1.34.6,1.76.91.63,1.52.63c.18,0,.4-.04.67-.11.27-.07.54-.2.81-.37l.93,1.57Z"></path><path class="st4" d="M212.64,150.05c-.25.11-.52.19-.82.24-.3.05-.61.08-.92.08-.87,0-1.52-.21-1.96-.63-.44-.42-.66-1.05-.66-1.89v-4.04h-1.32v-1.75h1.32v-1.83l2.36-.68v2.51h1.85v1.75h-1.85v3.88c0,.33.06.57.19.72s.33.22.6.22c.14,0,.27-.02.39-.05.12-.03.24-.08.36-.13l.47,1.6Z"></path><path class="st4" d="M219.03,144.04c-.1-.03-.21-.05-.32-.06-.11-.01-.23-.02-.36-.02-.64,0-1.13.21-1.46.62-.33.41-.49.98-.49,1.71v3.9h-2.37v-8.11h2.37v1.52h.03c.19-.55.47-.97.83-1.24s.8-.41,1.32-.41c.12,0,.24,0,.36.02s.24.04.36.06l-.27,2.03Z"></path><path class="st4" d="M222.01,140.98c-.41,0-.75-.12-1.01-.37s-.39-.56-.39-.93.13-.7.39-.94.6-.36,1.01-.36.75.12,1.01.36.39.56.39.94-.13.69-.39.94-.6.37-1.01.37ZM223.17,150.18h-2.36v-8.11h2.36v8.11Z"></path><path class="st4" d="M231.99,149.65c-.41.25-.83.44-1.26.56-.43.12-.89.18-1.38.18-1.35,0-2.4-.38-3.16-1.13-.76-.76-1.14-1.73-1.14-2.93,0-1.38.4-2.46,1.21-3.26.81-.8,1.88-1.19,3.22-1.19.5,0,.93.05,1.31.15.38.1.76.25,1.13.46l-.89,1.6c-.24-.14-.47-.24-.71-.3-.23-.06-.49-.09-.75-.09-.67,0-1.19.21-1.56.65-.38.43-.56,1.04-.56,1.82s.2,1.34.6,1.76.91.63,1.52.63c.18,0,.4-.04.67-.11.27-.07.54-.2.81-.37l.93,1.57Z"></path><path class="st4" d="M240.12,150.18h-2.25v-1.18h-.03c-.27.45-.61.8-1.01,1.03-.41.23-.87.35-1.38.35-.72,0-1.33-.22-1.83-.65-.49-.43-.74-1.03-.74-1.79s.25-1.37.74-1.84c.49-.47,1.26-.77,2.29-.91l1.99-.27v-.15c0-.42-.13-.73-.39-.94-.26-.21-.61-.32-1.07-.32-.34,0-.71.06-1.11.17s-.81.3-1.21.55l-.83-1.4c.53-.33,1.07-.57,1.61-.72.54-.16,1.13-.24,1.77-.24,1.18,0,2.05.28,2.61.85s.85,1.42.85,2.56v4.9ZM237.89,146.88v-.57l-1.54.2c-.43.06-.75.18-.97.37-.21.19-.32.45-.32.78,0,.3.1.54.31.74s.48.29.83.29c.5,0,.9-.17,1.21-.51.31-.34.47-.77.47-1.29Z"></path></g></svg> 